<svg xmlns="http://www.w3.org/2000/svg" xmlns:xlink="http://www.w3.org/1999/xlink" version="1.1" id="imgsvg1" x="0px" y="0px" width="60px" height="60px" viewBox="0 0 60 60" enable-background="new 0 0 60 60" xml:space="preserve" class="svg replaced-svg">
       								<g>
       									<g>

       										<path id="SVGID_1_" fill="#657177" d="M56.064,28.948h-4.652c1.934-4.362,1.727-7.893,0.992-10.282    c-1.254-4.259-5.489-8.881-11.764-8.881c-1.674,0-3.348,0.312-5.072,0.935c-2.979,1.089-4.967,2.285-5.856,2.908    c-0.888-0.623-2.823-1.818-5.856-2.908c-1.725-0.624-3.45-0.935-5.071-0.935c-6.275,0-10.509,4.622-11.766,8.881    c-0.73,2.543-0.992,6.388,1.465,11.217H2.837C2.367,29.883,2,30.248,2,30.714c0,0.468,0.366,0.832,0.837,0.832h6.64    c0.262,0.468,0.575,0.935,0.941,1.402c5.438,7.79,17.255,16.255,19.398,16.774v0.053c0,0,0.054,0,0.104-0.053    c0.053,0,0.104,0,0.157,0V49.67c1.83-0.884,13.176-8.154,19.137-16.775c0.575-0.778,1.046-1.559,1.466-2.336h5.489    c0.472,0,0.837-0.365,0.837-0.832C57.007,29.261,56.536,28.948,56.064,28.948L56.064,28.948z M47.698,32.014    c-5.541,8.049-15.737,14.541-17.933,15.943c-2.25-1.402-12.393-7.946-17.988-15.943c-0.104-0.156-0.21-0.312-0.314-0.468h7.687    c0.313,0,0.626-0.155,0.784-0.468l3.503-6.855l5.49,13.97c0.104,0.313,0.47,0.52,0.783,0.52c0,0,0,0,0.055,0    c0.365,0,0.678-0.261,0.782-0.624l4.812-16.359l2.563,8.257c0.104,0.312,0.366,0.52,0.68,0.572    c0.313,0.053,0.629-0.104,0.836-0.365l2.041-2.959l1.726,2.908c0.155,0.26,0.417,0.416,0.731,0.416h4.705    C48.327,31.078,48.014,31.546,47.698,32.014L47.698,32.014z M49.581,28.948h-5.124l-2.145-3.636    c-0.155-0.259-0.418-0.415-0.73-0.415c-0.314,0-0.575,0.104-0.732,0.363l-1.777,2.596l-2.875-9.296    c-0.104-0.363-0.471-0.572-0.838-0.623c-0.365,0-0.731,0.26-0.836,0.623l-4.861,16.67L24.38,21.833    c-0.104-0.311-0.419-0.519-0.732-0.519c-0.366,0-0.628,0.156-0.784,0.467l-4.131,8.05h-8.314    c-2.091-3.792-2.667-7.427-1.725-10.698c1.099-3.688,4.706-7.634,10.144-7.634c1.464,0,2.981,0.31,4.497,0.831    c3.816,1.402,5.856,3.012,5.907,3.012c0.314,0.259,0.732,0.259,1.046,0c0,0,2.04-1.61,5.909-3.012    c1.517-0.572,3.033-0.831,4.496-0.831c5.386,0,9.045,3.946,10.144,7.634C51.727,22.146,51.255,25.468,49.581,28.948L49.581,28.948    z"></path>
       									</g>
       								</g>
       							</svg>