<svg xmlns="http://www.w3.org/2000/svg" xmlns:xlink="http://www.w3.org/1999/xlink" version="1.1" id="imgsvg10" x="0px" y="0px" width="60px" height="60px" viewBox="0 0 60 60" enable-background="new 0 0 60 60" xml:space="preserve" class="svg replaced-svg">
       								<g>
       									<g>
       										<path id="SVGID_15_" fill="#657177" d="M10,49.999V29.535h6.065L26.801,20.7c-0.666-0.693-1.077-1.638-1.077-2.676h1.255    c0,0.739,0.31,1.401,0.806,1.865l1.711-1.409l1.721,1.417c0.495-0.472,0.805-1.126,0.805-1.865c0-1.411-1.129-2.56-2.518-2.56    h-0.627v-2.56h-4.111l-1.449-2.204L24.362,10l1.076,1.63h8.132l1.07-1.63l1.047,0.708l-1.449,2.204h-4.113v1.339    c1.782,0.299,3.145,1.882,3.145,3.78c0,1.038-0.408,1.983-1.076,2.676l10.736,8.827H49v20.464L10,49.999L10,49.999z     M29.496,20.125l-0.495,0.402c0.162,0.031,0.325,0.046,0.495,0.046c0.172,0,0.333-0.016,0.497-0.046L29.496,20.125L29.496,20.125z     M31.139,21.479c-0.494,0.243-1.053,0.386-1.643,0.386c-0.588,0-1.146-0.143-1.641-0.386l-9.791,8.063H40.93L31.139,21.479    L31.139,21.479z M47.736,30.816H11.255v17.906h36.481V30.816L47.736,30.816z M28.869,45.525V34.021h1.255v11.504H28.869    L28.869,45.525z M22.579,45.525V34.021h1.255v11.504H22.579L22.579,45.525z M16.29,45.525V34.021h1.254v11.504H16.29L16.29,45.525    z M35.158,45.525V34.021h1.255v11.504H35.158L35.158,45.525z M41.448,45.525V34.021h1.255v11.504H41.448L41.448,45.525z"></path>
       									</g>
       								</g>
       							</svg>