<svg xmlns="http://www.w3.org/2000/svg" xmlns:xlink="http://www.w3.org/1999/xlink" version="1.1" id="imgsvg11" x="0px" y="0px" width="60px" height="60px" viewBox="0 0 60 60" enable-background="new 0 0 60 60" xml:space="preserve" class="svg replaced-svg">
       								<g>
       									<g>
       										<path id="SVGID_17_" fill="#657177" d="M19.333,15.333C18.6,15.333,18,14.734,18,13.999c0-0.736,0.599-1.334,1.333-1.334    c0.736,0,1.334,0.599,1.334,1.334S20.07,15.333,19.333,15.333L19.333,15.333z M19.355,18.665c-0.369,0-0.671-0.298-0.671-0.667    c0-0.368,0.296-0.667,0.664-0.667h0.007c0.368,0,0.667,0.299,0.667,0.667C20.021,18.367,19.723,18.665,19.355,18.665    L19.355,18.665z M19.335,23.332c-0.735,0-1.334-0.598-1.334-1.333c0-0.736,0.599-1.334,1.334-1.334s1.333,0.598,1.333,1.334    C20.667,22.734,20.07,23.332,19.335,23.332L19.335,23.332z M15.334,19.333c-0.735,0-1.333-0.598-1.333-1.334    c0-0.735,0.598-1.333,1.333-1.333c0.736,0,1.334,0.598,1.334,1.333C16.668,18.735,16.07,19.333,15.334,19.333L15.334,19.333z     M38.667,48.666H28c-0.367,0-0.666-0.299-0.666-0.668c0-0.367,0.299-0.666,0.666-0.666h10.667c1.104,0,2.001-0.896,2.001-1.999V28    c0-1.104-0.896-2-2.001-2h-24c-1.102,0-2,0.896-2,2v6.667c0,0.367-0.297,0.666-0.666,0.666h-0.667V38h0.667    c0.369,0,0.666,0.299,0.666,0.666v6.668c0,1.104,0.898,1.999,2,1.999h10.666c0.369,0,0.667,0.299,0.667,0.666v1.335    C26,49.701,25.701,50,25.333,50s-0.667-0.299-0.667-0.666v-0.667h-10c-1.837,0-3.333-1.496-3.333-3.333v-6h-0.667    c-0.369,0-0.667-0.299-0.667-0.668v-3.999C9.999,34.3,10.298,34,10.666,34h0.667v-6c0-1.838,1.496-3.334,3.333-3.334h24    C40.505,24.666,42,26.162,42,28v17.333C42.001,47.17,40.506,48.666,38.667,48.666L38.667,48.666z M30.001,39.333h-6.667    c-1.471,0-2.667-1.197-2.667-2.667c0-1.471,1.196-2.667,2.667-2.667s2.667,1.196,2.667,2.667c0,0.367-0.299,0.667-0.666,0.667    c-0.369,0-0.668-0.3-0.668-0.667c0-0.734-0.598-1.334-1.333-1.334S22,35.932,22,36.666s0.6,1.333,1.334,1.333h6.667    c0.733,0,1.334-0.599,1.334-1.333s-0.601-1.334-1.334-1.334c-0.735,0-1.333,0.6-1.333,1.334c0,0.367-0.299,0.667-0.668,0.667    c-0.367,0-0.666-0.3-0.666-0.667c0-1.471,1.195-2.667,2.667-2.667c1.472,0,2.667,1.196,2.667,2.667    C32.668,38.136,31.473,39.333,30.001,39.333L30.001,39.333z M23.334,19.333C22.6,19.333,22,18.735,22,17.999    c0-0.735,0.6-1.333,1.334-1.333s1.333,0.598,1.333,1.333C24.667,18.735,24.069,19.333,23.334,19.333L23.334,19.333z     M40.171,23.091c-0.132,0.159-0.321,0.241-0.514,0.241c-0.149,0-0.3-0.05-0.425-0.152c-0.283-0.235-0.323-0.655-0.09-0.939    c0.982-1.189,1.522-2.696,1.522-4.242c0-3.676-2.988-6.667-6.666-6.667c-3.674,0-6.666,2.991-6.666,6.667    c0,1.546,0.542,3.053,1.524,4.242c0.235,0.284,0.195,0.704-0.089,0.939c-0.285,0.235-0.705,0.194-0.938-0.089    c-0.479-0.581-0.867-1.227-1.163-1.91c-0.296,0.684-0.683,1.33-1.163,1.91c-0.13,0.159-0.322,0.241-0.514,0.241    c-0.149,0-0.299-0.05-0.423-0.152c-0.285-0.235-0.325-0.655-0.09-0.939c0.982-1.189,1.524-2.696,1.524-4.242    c0-3.676-2.99-6.667-6.667-6.667c-3.674,0-6.667,2.991-6.667,6.667c0,1.546,0.542,3.053,1.524,4.242    c0.235,0.284,0.194,0.704-0.089,0.939c-0.285,0.235-0.704,0.194-0.939-0.089c-1.18-1.428-1.829-3.237-1.829-5.092    c0-4.411,3.588-7.999,8-7.999c3.279,0,6.098,1.983,7.333,4.812C27.902,11.983,30.723,10,34,10c4.412,0,8.001,3.588,8.001,7.999    C42.001,19.854,41.352,21.663,40.171,23.091L40.171,23.091z M38.001,19.333c-0.733,0-1.334-0.598-1.334-1.334    c0-0.735,0.601-1.333,1.334-1.333c0.735,0,1.333,0.598,1.333,1.333C39.334,18.735,38.736,19.333,38.001,19.333L38.001,19.333z     M49.324,45.003c-0.207,0.115-0.43,0.173-0.649,0.173c-0.225,0-0.446-0.061-0.646-0.181l-4.358-2.492    c-0.319-0.183-0.43-0.589-0.248-0.907c0.183-0.32,0.591-0.434,0.911-0.25l4.334,2.479V30.71l-4.336,2.461    c-0.318,0.181-0.727,0.07-0.909-0.25c-0.182-0.319-0.069-0.728,0.249-0.907l4.377-2.492c0.451-0.246,0.932-0.252,1.327-0.017    c0.38,0.226,0.626,0.65,0.626,1.087v13.334C50.001,44.35,49.734,44.771,49.324,45.003L49.324,45.003z M34.021,18.665    c-0.369,0-0.672-0.298-0.672-0.667c0-0.368,0.297-0.667,0.664-0.667h0.008c0.367,0,0.666,0.299,0.666,0.667    C34.688,18.367,34.391,18.665,34.021,18.665L34.021,18.665z M34,15.333c-0.734,0-1.332-0.599-1.332-1.334    c0-0.736,0.598-1.334,1.332-1.334c0.736,0,1.334,0.599,1.334,1.334S34.736,15.333,34,15.333L34,15.333z M34,23.332    c-0.734,0-1.332-0.598-1.332-1.333c0-0.736,0.598-1.334,1.332-1.334c0.736,0,1.334,0.598,1.334,1.334    C35.334,22.734,34.736,23.332,34,23.332L34,23.332z M30.001,19.333c-0.735,0-1.333-0.598-1.333-1.334    c0-0.735,0.598-1.333,1.333-1.333c0.733,0,1.334,0.598,1.334,1.333C31.335,18.735,30.734,19.333,30.001,19.333L30.001,19.333z"></path>
       									</g>
       								</g>
       							</svg>