<svg xmlns="http://www.w3.org/2000/svg" xmlns:xlink="http://www.w3.org/1999/xlink" version="1.1" id="imgsvg2" x="0px" y="0px" width="60px" height="60px" viewBox="0 0 60 60" enable-background="new 0 0 60 60" xml:space="preserve" class="svg replaced-svg">
       								<g>
       									<g>
       										<path id="SVGID_3_" fill="#657177" d="M40.613,49.932l-0.85,3.428c-0.098,0.39-0.445,0.648-0.824,0.648    c-0.068,0-0.139-0.008-0.207-0.023c-0.455-0.115-0.732-0.582-0.617-1.041l0.85-3.43c0.112-0.459,0.574-0.738,1.029-0.623    C40.45,49.006,40.729,49.473,40.613,49.932L40.613,49.932z M39.264,27.752l-9.351,3.902c-0.104,0.045-0.215,0.066-0.325,0.066    c-0.11,0-0.221-0.021-0.324-0.066L4.614,21.368c-0.319-0.132-0.526-0.445-0.526-0.792v-0.858c0-0.473,0.381-0.858,0.85-0.858    c0.47,0,0.85,0.385,0.85,0.858v0.285l23.8,9.932l9.025-3.768c0.433-0.179,0.931,0.027,1.109,0.466    C39.902,27.071,39.695,27.572,39.264,27.752L39.264,27.752z M39.314,41.65c-1.895,0.945-5.121,2.07-9.728,2.07    c-13.173,0-16.792-8.738-16.939-9.111c-0.039-0.102-0.061-0.209-0.061-0.318V28.29c0-0.473,0.381-0.856,0.85-0.856    c0.47,0,0.85,0.383,0.85,0.856v5.824c0.491,1.073,3.897,7.521,14.451,7.86v-7.684c0-0.473,0.381-0.855,0.85-0.855    c0.471,0,0.852,0.383,0.852,0.855v7.689c3.813-0.127,6.511-1.063,8.123-1.867c0.424-0.211,0.931-0.035,1.14,0.39    C39.91,40.926,39.736,41.439,39.314,41.65L39.314,41.65z M42.339,54.008c-0.471,0-0.851-0.383-0.851-0.855V50.58    c0-0.475,0.38-0.857,0.851-0.857c0.47,0,0.851,0.385,0.851,0.857v2.572C43.188,53.625,42.809,54.008,42.339,54.008L42.339,54.008z     M54.238,18.86c0.471,0,0.851,0.385,0.851,0.858v0.858c0,0.347-0.207,0.66-0.526,0.792L43.188,26.09v10.633    c1.043-1.105,1.555-2.226,1.701-2.59v-5.842c0-0.473,0.379-0.857,0.85-0.857s0.851,0.384,0.851,0.857v6    c0,0.098-0.016,0.191-0.047,0.279c-0.037,0.111-0.912,2.584-3.354,4.441v4.867c0.987,0.354,1.701,1.297,1.701,2.413    c0,1.418-1.146,2.571-2.551,2.571c-1.406,0-2.551-1.153-2.551-2.571c0-1.116,0.713-2.06,1.699-2.413V25.508v-0.002V22.76    l-9.699-3.652c-0.59,0.377-1.35,0.61-2.2,0.61c-1.905,0-3.4-1.13-3.4-2.572s1.495-2.572,3.4-2.572c1.907,0,3.399,1.13,3.399,2.572    c0,0.191-0.028,0.375-0.077,0.553l9.348,3.52l9.759-4.073l-22.429-9.36L7.16,17.146l22.427,9.359l8.589-3.582    c0.436-0.182,0.932,0.025,1.11,0.462c0.179,0.439-0.026,0.94-0.461,1.121l-8.913,3.719c-0.104,0.044-0.215,0.064-0.325,0.064    c-0.11,0-0.221-0.02-0.324-0.064L4.614,17.938c-0.319-0.132-0.526-0.445-0.526-0.792s0.207-0.66,0.526-0.792l24.65-10.288    c0.209-0.085,0.441-0.085,0.649,0l24.651,10.288c0.316,0.132,0.523,0.445,0.523,0.792s-0.207,0.66-0.523,0.792l-11.377,4.747    v1.549l10.201-4.233v-0.283C53.389,19.245,53.77,18.86,54.238,18.86L54.238,18.86z M29.588,16.29c-1.037,0-1.7,0.506-1.7,0.856    s0.663,0.858,1.7,0.858c1.039,0,1.7-0.508,1.7-0.858S30.627,16.29,29.588,16.29L29.588,16.29z M42.339,45.438    c-0.469,0-0.851,0.385-0.851,0.855c0,0.473,0.382,0.857,0.851,0.857c0.47,0,0.851-0.385,0.851-0.857    C43.188,45.82,42.809,45.438,42.339,45.438L42.339,45.438z M45.943,53.982c-0.067,0.018-0.139,0.024-0.205,0.024    c-0.381,0-0.727-0.26-0.823-0.647l-0.851-3.43c-0.114-0.459,0.164-0.925,0.617-1.039c0.455-0.117,0.918,0.164,1.031,0.623    l0.85,3.43C46.678,53.402,46.4,53.868,45.943,53.982L45.943,53.982z"></path>
       									</g>
       								</g>
       							</svg>