<svg xmlns="http://www.w3.org/2000/svg" xmlns:xlink="http://www.w3.org/1999/xlink" version="1.1" id="imgsvg3" x="0px" y="0px" width="60px" height="60px" viewBox="0 0 60 60" enable-background="new 0 0 60 60" xml:space="preserve" class="svg replaced-svg">
       								<g>
       									<g>
       										<path id="SVGID_5_" fill="#657177" d="M26.46,49.991c-2.134,0-3.87-1.705-3.87-3.8c0-2.096,1.736-3.801,3.87-3.801    s3.871,1.705,3.871,3.801C30.331,48.286,28.595,49.991,26.46,49.991L26.46,49.991z M26.46,44.514    c-0.942,0-1.709,0.754-1.709,1.678c0,0.925,0.768,1.679,1.709,1.679c0.943,0,1.709-0.754,1.709-1.679    C28.17,45.268,27.404,44.514,26.46,44.514L26.46,44.514z M40.037,49.991c-2.135,0-3.87-1.705-3.87-3.8    c0-2.096,1.735-3.801,3.87-3.801s3.87,1.705,3.87,3.801C43.907,48.286,42.172,49.991,40.037,49.991L40.037,49.991z M40.037,44.514    c-0.941,0-1.709,0.754-1.709,1.678c0,0.925,0.766,1.679,1.709,1.679c0.941,0,1.71-0.754,1.71-1.679    C41.747,45.268,40.979,44.514,40.037,44.514L40.037,44.514z M40.99,24.508H25.504c-0.596,0-1.08-0.477-1.08-1.062    c0-0.585,0.484-1.06,1.08-1.06H40.99c0.597,0,1.08,0.475,1.08,1.06C42.07,24.031,41.587,24.508,40.99,24.508L40.99,24.508z     M40.148,30.016h-13.8c-0.598,0-1.081-0.475-1.081-1.062c0-0.585,0.482-1.06,1.081-1.06h13.8c0.596,0,1.08,0.477,1.08,1.06    C41.229,29.541,40.744,30.016,40.148,30.016L40.148,30.016z M51.973,19.426L48.95,33.83c-0.207,0.98-1.097,1.693-2.117,1.693    H20.11l0.635,3.031h25.888c0.596,0,1.08,0.473,1.08,1.061c0,0.585-0.484,1.06-1.08,1.06H20.746c-1.02,0-1.911-0.711-2.116-1.692    L13.4,14.066l-4.742-2.022c-0.548-0.232-0.798-0.858-0.562-1.395c0.238-0.537,0.875-0.785,1.421-0.551l4.744,2.021    c0.646,0.276,1.115,0.844,1.256,1.52l0.679,3.24h33.658c0.654,0,1.266,0.285,1.678,0.782C51.941,18.154,52.104,18.8,51.973,19.426    L51.973,19.426z M16.642,18.998L19.665,33.4h27.168l3.021-14.402H16.642L16.642,18.998z"></path>
       									</g>
       								</g>
       							</svg>