<svg xmlns="http://www.w3.org/2000/svg" xmlns:xlink="http://www.w3.org/1999/xlink" version="1.1" id="imgsvg4" x="0px" y="0px" width="60px" height="60px" viewBox="0 0 60 60" enable-background="new 0 0 60 60" xml:space="preserve" class="svg replaced-svg">
       								<g>
       									<g>
       										<path id="SVGID_7_" fill="#657177" d="M50.248,40.13c0,2.662-2.166,4.829-4.828,4.829c-2.66,0-4.826-2.167-4.826-4.829    s2.166-4.827,4.826-4.827c0.338,0,0.666,0.034,0.984,0.102c0.258-1.17,0.396-2.359,0.396-3.549c0-5.793-2.948-11.064-7.888-14.106    c-0.325-0.201-0.426-0.625-0.227-0.95c0.199-0.324,0.623-0.425,0.948-0.226c5.351,3.294,8.544,9.008,8.544,15.282    c0,1.351-0.164,2.701-0.469,4.024C49.221,36.699,50.248,38.296,50.248,40.13L50.248,40.13z M45.42,36.682    c-1.9,0-3.445,1.549-3.445,3.448c0,1.902,1.545,3.448,3.445,3.448c1.902,0,3.448-1.546,3.448-3.448    C48.868,38.229,47.322,36.682,45.42,36.682L45.42,36.682z M37.102,48.428c-2.18,0.903-4.482,1.359-6.854,1.359    c-4.832,0-9.476-1.977-12.84-5.432c-0.691,0.385-1.487,0.604-2.332,0.604c-2.662,0-4.828-2.167-4.828-4.829    s2.166-4.827,4.828-4.827c2.662,0,4.828,2.165,4.828,4.827c0,1.319-0.531,2.515-1.39,3.388c3.096,3.114,7.333,4.892,11.734,4.892    c2.188,0,4.314-0.423,6.324-1.255c0.353-0.146,0.757,0.021,0.9,0.373C37.62,47.879,37.452,48.283,37.102,48.428L37.102,48.428z     M18.524,40.13c0-1.899-1.546-3.448-3.448-3.448c-1.901,0-3.449,1.549-3.449,3.448c0,1.902,1.548,3.448,3.449,3.448    C16.979,43.578,18.524,42.032,18.524,40.13L18.524,40.13z M30.248,19.437c-2.19,0-4.039-1.466-4.628-3.469    c-6.644,1.929-11.385,7.744-11.877,14.703c-0.025,0.364-0.327,0.642-0.687,0.642c-0.016,0-0.033,0-0.05-0.002    c-0.38-0.025-0.666-0.355-0.638-0.735c0.536-7.605,5.755-13.95,13.052-15.982c0.011-2.655,2.172-4.812,4.827-4.812    c2.663,0,4.828,2.167,4.828,4.829C35.076,17.27,32.911,19.437,30.248,19.437L30.248,19.437z M30.248,11.161    c-1.9,0-3.448,1.546-3.448,3.448c0,1.901,1.547,3.448,3.448,3.448c1.9,0,3.449-1.547,3.449-3.448    C33.697,12.707,32.148,11.161,30.248,11.161L30.248,11.161z"></path>
       									</g>
       								</g>
       							</svg>