<svg xmlns="http://www.w3.org/2000/svg" xmlns:xlink="http://www.w3.org/1999/xlink" version="1.1" id="imgsvg5" x="0px" y="0px" width="60px" height="60px" viewBox="0 0 60 60" enable-background="new 0 0 60 60" xml:space="preserve" class="svg replaced-svg">
       								<g>
       									<g>
       										<path id="SVGID_9_" fill="#657177" d="M42.093,42.807H30.407c-0.359,0-0.63-0.267-0.72-0.709V30.579    c0-0.442,0.359-0.708,0.72-0.708h11.686c0.449,0,0.72,0.355,0.72,0.708v11.519C42.813,42.54,42.452,42.807,42.093,42.807    L42.093,42.807z M41.464,31.289H31.126v10.188h10.338V31.289L41.464,31.289z M19.981,41.743c-0.45,0-0.719-0.354-0.719-0.708    v-2.659c0-0.442,0.36-0.709,0.719-0.709c0.448,0,0.718,0.267,0.718,0.709v2.659C20.699,41.477,20.429,41.743,19.981,41.743    L19.981,41.743z M47.037,27.391v20.2h2.246c0.449,0,0.72,0.354,0.72,0.708c0,0.442-0.358,0.708-0.72,0.708h-2.967H26.272h-8.629    h-3.954h-3.056c-0.36,0-0.63-0.354-0.63-0.708c0-0.443,0.271-0.708,0.63-0.708v0.089h2.337V27.478    c-1.798-0.973-2.967-2.747-2.967-4.783c0-0.177,0-0.266,0.09-0.355l6.023-10.986C16.294,11.177,16.475,11,16.744,11h25.798    c0.181,0,0.45,0.176,0.539,0.354l6.742,10.986c0.089,0.089,0.089,0.265,0.089,0.355C49.912,24.731,48.745,26.505,47.037,27.391    L47.037,27.391z M18.271,47.591h7.281V31.289h-7.281V47.591L18.271,47.591z M15.575,26.681c2.067,0,3.687-1.417,4.046-3.366H11.44    C11.8,25.175,13.508,26.681,15.575,26.681L15.575,26.681z M17.104,12.329L11.8,21.985h7.281l3.326-9.657L17.104,12.329    L17.104,12.329z M29.239,12.329h-5.394l-3.416,9.657h8.81V12.329L29.239,12.329z M21.148,23.315    c0.36,1.86,1.978,3.366,4.045,3.366s3.687-1.417,4.046-3.366H21.148L21.148,23.315z M25.104,28.099    c-2.067,0-3.866-1.152-4.766-2.835c-0.898,1.683-2.696,2.835-4.764,2.835c-0.448,0-0.898-0.089-1.258-0.177h-0.09V47.68h2.607    V30.668c0-0.442,0.36-0.708,0.719-0.708h8.628c0.45,0,0.719,0.353,0.719,0.708V47.68h18.699V27.922    c-0.451,0.088-0.811,0.177-1.259,0.177c-2.157,0-3.956-1.152-4.854-2.924c-0.898,1.772-2.785,2.924-4.854,2.924    c-2.066,0-3.865-1.152-4.764-2.835C28.969,26.947,27.172,28.099,25.104,28.099L25.104,28.099z M38.768,23.315h-8.091    c0.359,1.86,1.979,3.366,4.046,3.366C36.79,26.681,38.407,25.264,38.768,23.315L38.768,23.315z M30.588,12.329v9.657h8.27    l-3.416-9.657H30.588L30.588,12.329z M42.002,12.329h-5.123l3.415,9.657h7.642L42.002,12.329L42.002,12.329z M40.385,23.315    c0.359,1.86,1.979,3.366,4.045,3.366c1.979,0,3.688-1.417,4.047-3.366H40.385L40.385,23.315z"></path>
       									</g>
       								</g>
       							</svg>