<svg xmlns="http://www.w3.org/2000/svg" xmlns:xlink="http://www.w3.org/1999/xlink" version="1.1" id="imgsvg6" x="0px" y="0px" width="60px" height="60px" viewBox="0 0 60 60" enable-background="new 0 0 60 60" xml:space="preserve" class="svg replaced-svg">
       								<g>
       									<g>
       										<path id="SVGID_11_" fill="#657177" d="M49.008,50.443h-3.416h-0.001h-2.733c-0.002,0-0.002,0-0.002,0h-3.416h-3.416    c-0.002,0-0.002,0-0.002,0h-2.734c0,0,0,0-0.002,0h-3.416h-8.203h-4.101c0,0,0,0-0.001,0h-4.101c-0.002,0-0.002,0-0.002,0H9.36    c-0.408,0-0.724-0.35-0.679-0.752l1.367-12.207c0.039-0.344,0.332-0.604,0.679-0.604h0.733l1.32-17.684    c0.026-0.354,0.324-0.627,0.682-0.627h4.101c0.358,0,0.655,0.274,0.682,0.627l1.32,17.684h0.733h2.05v-5.17    c0-0.891,0.727-1.612,1.625-1.612h2.219c0.896,0,1.625,0.721,1.625,1.612v5.17h1.912l9.439-4.016    c0.451-0.191,0.953,0.138,0.953,0.623v3.041l8.615-3.664c0.453-0.191,0.955,0.138,0.955,0.623v16.277    C49.691,50.141,49.387,50.443,49.008,50.443L49.008,50.443z M14.146,49.089h2.734v-4.067h-2.734V49.089L14.146,49.089z     M16.928,19.926h-2.832L12.83,36.882h5.365L16.928,19.926L16.928,19.926z M20.227,43.063l-0.54-4.826H18.93h-6.834h-0.757    l-1.214,10.853h2.654v-4.747c0-0.375,0.305-0.679,0.684-0.679h4.101c0.378,0,0.683,0.304,0.683,0.679v4.747h2.655L20.227,43.063    L20.227,43.063z M26.45,31.712c0-0.144-0.115-0.256-0.257-0.256h-2.219c-0.143,0-0.258,0.112-0.258,0.256v5.17h2.734V31.712    L26.45,31.712z M29.185,38.236h-2.05h-4.103h-1.971l1.216,10.853h6.907L29.185,38.236L29.185,38.236z M33.969,49.089h1.369v-3.391    h-1.369V49.089L33.969,49.089z M38.755,37.559V34.52l-8.203,3.487v11.082h2.052v-4.067c0-0.375,0.307-0.68,0.684-0.68h2.734    c0.377,0,0.684,0.305,0.684,0.68v4.067h2.051L38.755,37.559L38.755,37.559z M43.54,49.089h1.367v-3.391H43.54V49.089L43.54,49.089    z M48.324,34.52l-8.202,3.487v11.082h2.052v-4.067c0-0.375,0.305-0.68,0.684-0.68h2.733c0.377,0,0.685,0.305,0.685,0.68v4.067    h2.05L48.324,34.52L48.324,34.52z M43.406,22.634c-0.163,0.003-0.333,0.006-0.572,0.011c-0.99,0.08-2.186-0.188-3.334-1.081    c-0.303,0.316-0.645,0.632-1.02,0.928c-1.172,0.925-2.442,1.491-3.82,1.507c-0.42,0.037-0.979-0.026-1.639-0.262    c-0.953-0.336-1.945-0.976-2.969-1.989c-0.455,0.412-1.2,0.654-2.139,0.786c-0.702,0.1-1.428,0.125-2.148,0.105    c-1.86,0-3.176-1.062-4.002-2.757c-0.279-0.568-0.481-1.169-0.625-1.771c-0.085-0.363-0.134-0.648-0.146-0.771    c-0.123-0.643-0.768-0.896-1.98-0.788c-0.487,0.045-1.02,0.149-1.562,0.296c-0.263,0.07-0.511,0.146-0.735,0.223    c-0.132,0.045-0.226,0.078-0.272,0.096c-0.539,0.208-1.079-0.3-0.896-0.845c0.174-0.523,0.599-1.255,1.375-1.977    c1.266-1.177,3.058-1.879,5.427-1.879h1.116c0.249-0.189,0.612-0.408,1.093-0.619c1.052-0.462,2.362-0.736,3.942-0.736    c0.44-0.005,1.019,0.061,1.603,0.271c0.578,0.209,1.051,0.531,1.369,0.968c0.123-0.127,0.256-0.258,0.403-0.387    c1.065-0.947,2.435-1.521,4.104-1.531c0.521-0.046,1.269,0.165,2.218,0.794c0.907,0.603,1.683,1.428,2.329,2.434    c1.104,1.712,2.416,2.877,3.697,2.877c0,0,0.109,0.009,0.119,0.009c0.249,0.023,0.566-0.031,0.868-0.23    c0.644-0.422,1.063-1.395,1.063-3.169c0-0.588,0.701-0.897,1.141-0.504c0.039,0.036,0.102,0.095,0.184,0.179    C51.141,16.458,48.521,22.519,43.406,22.634L43.406,22.634z M47.465,14.986c-0.25,1.168-0.766,1.978-1.496,2.458    c-0.598,0.394-1.219,0.501-1.793,0.447c-1.881-0.023-3.476-1.445-4.802-3.503c-0.549-0.856-1.197-1.544-1.937-2.035    c-0.414-0.275-0.766-0.44-1.049-0.521c-0.156-0.043-0.25-0.053-0.244-0.056l-0.125,0.013c-1.336,0-2.399,0.442-3.233,1.183    c-0.293,0.26-0.534,0.537-0.729,0.814c-0.111,0.161-0.181,0.279-0.207,0.332c-0.315,0.649-1.299,0.425-1.299-0.295    c0-0.598-0.31-0.948-0.917-1.166c-0.401-0.145-0.827-0.193-1.133-0.19c-1.392,0-2.513,0.235-3.391,0.622    c-0.5,0.219-0.799,0.426-0.916,0.54c-0.127,0.126-0.3,0.195-0.479,0.195h-1.367c-2.022,0-3.479,0.571-4.523,1.541    c0.361-0.075,0.718-0.129,1.062-0.16c1.825-0.165,3.156,0.356,3.456,1.937c0.014,0.122,0.053,0.355,0.126,0.66    c0.122,0.511,0.293,1.021,0.523,1.491c0.621,1.272,1.513,1.991,2.805,1.993c0.013,0,0.048,0.001,0.098,0.003    c0.556,0.014,1.211-0.008,1.823-0.095c0.701-0.1,1.154-0.263,1.352-0.418l-1.054-1.046c-0.267-0.263-0.267-0.693,0-0.959    c0.268-0.265,0.7-0.265,0.966,0l1.368,1.356l0.684,0.68c0.867,0.859,1.691,1.387,2.447,1.657c0.471,0.167,0.828,0.207,1.056,0.188    l0.116-0.01c0.998,0,2.012-0.448,2.976-1.209c0.349-0.274,0.663-0.57,0.938-0.864c0.164-0.173,0.275-0.305,0.326-0.374    c0.254-0.325,0.735-0.358,1.027-0.068c0.107,0.109,0.219,0.207,0.33,0.299c0.503,0.411,1.036,0.662,1.573,0.788    c0.358,0.084,0.669,0.101,0.931,0.079l0.102-0.008c0.178,0,0.353-0.001,0.519-0.004C46.773,21.2,48.734,17.725,47.465,14.986    L47.465,14.986z M23.716,47.055c-0.377,0-0.684-0.305-0.684-0.678v-5.428c0-0.373,0.307-0.678,0.684-0.678    c0.378,0,0.684,0.305,0.684,0.678v5.428C24.399,46.75,24.094,47.055,23.716,47.055L23.716,47.055z M27.135,47.055    c-0.378,0-0.685-0.305-0.685-0.678v-5.428c0-0.373,0.307-0.678,0.685-0.678c0.376,0,0.683,0.305,0.683,0.678v5.428    C27.818,46.75,27.511,47.055,27.135,47.055L27.135,47.055z M36.021,42.309h-2.734c-0.377,0-0.684-0.305-0.684-0.681v-2.712    c0-0.375,0.307-0.68,0.684-0.68h2.734c0.377,0,0.684,0.305,0.684,0.68v2.712C36.704,42.004,36.396,42.309,36.021,42.309    L36.021,42.309z M35.338,39.594h-1.369v1.355h1.369V39.594L35.338,39.594z M45.591,42.309h-2.733    c-0.379,0-0.684-0.305-0.684-0.681v-2.712c0-0.375,0.305-0.68,0.684-0.68h2.733c0.377,0,0.685,0.305,0.685,0.68v2.712    C46.273,42.004,45.968,42.309,45.591,42.309L45.591,42.309z M44.907,39.594H43.54v1.355h1.367V39.594L44.907,39.594z"></path>
       									</g>
       								</g>
       							</svg>