<svg width="44px" height="42px" viewBox="0 0 44 42" version="1.1" xmlns="http://www.w3.org/2000/svg" xmlns:xlink="http://www.w3.org/1999/xlink">
<title>Help Desk Software</title>
<desc>Help Desk Software</desc>
<g id="Page-1" stroke="none" stroke-width="1" fill="none" fill-rule="evenodd">
<g id="Artboard" transform="translate(-431.000000, -478.000000)" fill="#657177" fill-rule="nonzero">
<g id="helpdesk-software" transform="translate(431.000000, 478.000000)">
<path d="M21.7241379,0 C20.1287716,0 17.8488689,0.497844828 16.4317078,1.45393355 C13.7359914,1.55010776 11.8888741,3.44531286 11.5890354,6.44652497 C11.4023439,8.29929993 11.5720638,9.62594307 11.6852103,10.5028285 C11.7248112,10.8083242 11.7672414,11.1534215 11.7530982,11.2552534 C11.7304689,11.3882008 11.7078396,11.5239767 11.6880388,11.662581 C11.5692353,11.668238 11.4645742,11.6852103 11.3712284,11.7106681 C10.7206361,11.8860456 10.2623922,12.4659215 10.0813578,13.3484646 C9.93709572,14.0556302 9.98235434,14.915544 10.2114767,15.7698008 C10.5990034,17.2152482 11.4108301,18.3014551 12.2990302,18.6352371 C12.7318156,19.9590517 13.3597793,21.2743802 14.1320043,22.4737337 L4.52869055,27.0674837 C1.77640086,28.3828129 0,31.2029905 0,34.2522897 L0,39.8275862 C0,41.0241112 0.975888828,42 2.17241379,42 L41.2758621,42 C42.472387,42 43.4482759,41.0241112 43.4482759,39.8275862 L43.4482759,34.2522897 C43.4482759,31.2029905 41.671875,28.3828129 38.9195853,27.0674837 L29.3247577,22.4765629 C29.3445586,22.4397897 29.6076241,21.8797146 29.6670259,21.8627423 C30.9710397,21.506331 31.9865302,20.4512396 32.2580819,19.093481 L32.4702319,18.0355603 C33.7742457,17.7555224 34.7586207,16.5957707 34.7586207,15.2068966 L34.7586207,13.7586207 C34.7586207,12.1604258 33.4602638,10.862069 31.862069,10.862069 L31.6131466,10.862069 C31.4971715,10.3529095 31.3359379,9.82112069 31.0955009,9.17335686 C31.0870154,9.14506986 31.0785293,9.11678359 31.0700431,9.09415428 C31.3246232,9.1139551 31.7347793,9.22144397 32.0685612,9.35721983 C32.3203129,9.46188021 32.6060077,9.41662159 32.8125,9.24407328 C33.0161638,9.07152497 33.1123387,8.79714476 33.0529362,8.53407848 C31.8875268,3.19073276 27.9217405,0 22.4482759,0 L21.7241379,0 Z M21.7241379,1.44827586 L22.4482759,1.44827586 C26.8440198,1.44827586 30.0177802,3.69423528 31.3189655,7.66285003 C30.8211207,7.60627676 30.303475,7.66567924 29.9470638,8.01077586 C29.6698543,8.27384141 29.4096173,8.78017241 29.7377423,9.67403017 C29.9131198,10.1492457 30.043238,10.5452586 30.1422414,10.9186422 C29.8763473,11.0233026 29.6896552,11.2835397 29.6896552,11.5862069 L29.6896552,17.3793103 C29.6896552,17.7781518 30.0121232,18.1034483 30.4137931,18.1034483 L30.9795259,18.1034483 L30.838093,18.8106146 C30.6542293,19.7299301 29.9046336,20.4257811 28.9768319,20.5389276 L25.9105603,20.9236259 C25.5909215,20.1202854 24.8102103,19.5517241 23.8965517,19.5517241 L22.4482759,19.5517241 C21.2517509,19.5517241 20.2758621,20.527613 20.2758621,21.7241379 C20.2758621,22.9206629 21.2517509,23.8965517 22.4482759,23.8965517 L23.8965517,23.8965517 C24.8667836,23.8965517 25.6786103,23.2544449 25.955819,22.3775594 L27.7887931,22.1484379 C26.0491647,24.6404905 23.8682654,26.0689655 21.7241379,26.0689655 C17.9761586,26.0689655 14.7797681,21.9136586 13.5606146,17.8092672 C13.4672681,17.5037716 13.187231,17.2916216 12.8647629,17.2916216 C12.652613,17.2916216 11.9680767,16.728718 11.6116647,15.3935887 C11.4419449,14.7627965 11.4023439,14.1235181 11.5013473,13.636988 C11.5833784,13.2324896 11.7248112,13.1136853 11.7417836,13.1108569 C11.7446121,13.1108569 11.806843,13.1108569 11.9369612,13.1957164 C12.1547681,13.33715 12.4319776,13.3512931 12.6639276,13.2353181 C12.8958784,13.1165138 13.0457974,12.8845638 13.0571121,12.6243267 C13.0740844,12.2452854 13.1165138,11.8690733 13.1815733,11.5070043 C13.2353181,11.1958517 13.1900594,10.8479258 13.1221715,10.3189655 C13.0175111,9.50713883 12.8619344,8.2794991 13.0316543,6.590787 C13.2636043,4.27976814 14.6185345,2.89655172 16.6693156,2.89655172 C16.8248922,2.89655172 16.9776404,2.84563614 17.1049301,2.75228969 C18.0949621,2.00835166 20.0806844,1.44827586 21.7241379,1.44827586 Z M17.7611801,5.88362069 C17.2435345,5.83836207 16.7230603,6.07596983 16.4260508,6.52855603 L15.2634698,8.29081376 C15.0428344,8.62459572 15.1361801,9.07435345 15.4699621,9.29498959 C15.5915948,9.37702066 15.7301992,9.4137931 15.865975,9.4137931 C16.1035828,9.4137931 16.3327051,9.30064655 16.4741379,9.08849659 L17.6367189,7.32623959 L18.7681844,7.87782848 C20.8302802,8.88200431 23.1299837,9.4137931 25.4240302,9.4137931 L27.2768051,9.4137931 C27.678475,9.4137931 28.0009431,9.08849659 28.0009431,8.68965517 C28.0009431,8.29081376 27.678475,7.96551724 27.2768051,7.96551724 L25.4240302,7.96551724 C23.3506198,7.96551724 21.2658948,7.48464476 19.4018051,6.57381466 L18.2703396,6.02222503 C18.1062768,5.94302245 17.9337284,5.89776383 17.7611801,5.88362069 Z M31.137931,12.3103448 L31.862069,12.3103448 C32.6597525,12.3103448 33.3103448,12.9609379 33.3103448,13.7586207 L33.3103448,15.2068966 C33.3103448,16.0045801 32.6597525,16.6551724 31.862069,16.6551724 L31.137931,16.6551724 L31.137931,12.3103448 Z M22.4482759,21 L23.8965517,21 C24.2953931,21 24.6206897,21.3252965 24.6206897,21.7241379 C24.6206897,22.1229793 24.2953931,22.4482759 23.8965517,22.4482759 L22.4482759,22.4482759 C22.0494344,22.4482759 21.7241379,22.1229793 21.7241379,21.7241379 C21.7241379,21.3252965 22.0494344,21 22.4482759,21 Z M14.9919181,23.6702586 C16.7711474,25.916218 19.1189388,27.5172414 21.7241379,27.5172414 C24.1341595,27.5172414 26.5328664,26.1311965 28.4705009,23.6730871 L38.2944508,28.3743267 C40.5460672,29.4492189 42,31.7574086 42,34.2522897 L42,39.8275862 C42,40.2264276 41.6747035,40.5517241 41.2758621,40.5517241 L2.17241379,40.5517241 C1.77357238,40.5517241 1.44827586,40.2264276 1.44827586,39.8275862 L1.44827586,34.2522897 C1.44827586,31.7574086 2.90220941,29.4492189 5.15382579,28.3743267 L14.9919181,23.6702586 Z M25.3448276,31.8026672 C24.9431577,31.8026672 24.6206897,32.1279637 24.6206897,32.5268051 C24.6206897,32.9256466 24.9431577,33.2509431 25.3448276,33.2509431 L27.0335397,33.2509431 C27.4352103,33.2509431 27.7576776,32.9256466 27.7576776,32.5268051 C27.7576776,32.1279637 27.4352103,31.8026672 27.0335397,31.8026672 L25.3448276,31.8026672 Z M29.6896552,31.8026672 C29.2879853,31.8026672 28.9655172,32.1279637 28.9655172,32.5268051 C28.9655172,32.9256466 29.2879853,33.2509431 29.6896552,33.2509431 L32.8266431,33.2509431 C33.2283138,33.2509431 33.5507811,32.9256466 33.5507811,32.5268051 C33.5507811,32.1279637 33.2283138,31.8026672 32.8266431,31.8026672 L29.6896552,31.8026672 Z M3.62068966,36.2068966 C3.21901976,36.2068966 2.89655172,36.5321931 2.89655172,36.9310345 L2.89655172,38.3793103 C2.89655172,38.7781518 3.21901976,39.1034483 3.62068966,39.1034483 C4.02236028,39.1034483 4.34482759,38.7781518 4.34482759,38.3793103 L4.34482759,36.9310345 C4.34482759,36.5321931 4.02236028,36.2068966 3.62068966,36.2068966 Z M7.24137931,36.2068966 C6.83970941,36.2068966 6.51724138,36.5321931 6.51724138,36.9310345 L6.51724138,38.3793103 C6.51724138,38.7781518 6.83970941,39.1034483 7.24137931,39.1034483 C7.64304993,39.1034483 7.96551724,38.7781518 7.96551724,38.3793103 L7.96551724,36.9310345 C7.96551724,36.5321931 7.64304993,36.2068966 7.24137931,36.2068966 Z M10.862069,36.2068966 C10.4603991,36.2068966 10.137931,36.5321931 10.137931,36.9310345 L10.137931,38.3793103 C10.137931,38.7781518 10.4603991,39.1034483 10.862069,39.1034483 C11.2637396,39.1034483 11.5862069,38.7781518 11.5862069,38.3793103 L11.5862069,36.9310345 C11.5862069,36.5321931 11.2637396,36.2068966 10.862069,36.2068966 Z M14.4827586,36.2068966 C14.0810887,36.2068966 13.7586207,36.5321931 13.7586207,36.9310345 L13.7586207,38.3793103 C13.7586207,38.7781518 14.0810887,39.1034483 14.4827586,39.1034483 C14.8844292,39.1034483 15.2068966,38.7781518 15.2068966,38.3793103 L15.2068966,36.9310345 C15.2068966,36.5321931 14.8844292,36.2068966 14.4827586,36.2068966 Z M18.1034483,36.2068966 C17.7017784,36.2068966 17.3793103,36.5321931 17.3793103,36.9310345 L17.3793103,38.3793103 C17.3793103,38.7781518 17.7017784,39.1034483 18.1034483,39.1034483 C18.5051189,39.1034483 18.8275862,38.7781518 18.8275862,38.3793103 L18.8275862,36.9310345 C18.8275862,36.5321931 18.5051189,36.2068966 18.1034483,36.2068966 Z M21.7241379,36.2068966 C21.322468,36.2068966 21,36.5321931 21,36.9310345 L21,38.3793103 C21,38.7781518 21.322468,39.1034483 21.7241379,39.1034483 C22.1258086,39.1034483 22.4482759,38.7781518 22.4482759,38.3793103 L22.4482759,36.9310345 C22.4482759,36.5321931 22.1258086,36.2068966 21.7241379,36.2068966 Z M25.3448276,36.2068966 C24.9431577,36.2068966 24.6206897,36.5321931 24.6206897,36.9310345 L24.6206897,38.3793103 C24.6206897,38.7781518 24.9431577,39.1034483 25.3448276,39.1034483 C25.7464982,39.1034483 26.0689655,38.7781518 26.0689655,38.3793103 L26.0689655,36.9310345 C26.0689655,36.5321931 25.7464982,36.2068966 25.3448276,36.2068966 Z M28.9655172,36.2068966 C28.5638473,36.2068966 28.2413793,36.5321931 28.2413793,36.9310345 L28.2413793,38.3793103 C28.2413793,38.7781518 28.5638473,39.1034483 28.9655172,39.1034483 C29.3671879,39.1034483 29.6896552,38.7781518 29.6896552,38.3793103 L29.6896552,36.9310345 C29.6896552,36.5321931 29.3671879,36.2068966 28.9655172,36.2068966 Z M32.5862069,36.2068966 C32.184537,36.2068966 31.862069,36.5321931 31.862069,36.9310345 L31.862069,38.3793103 C31.862069,38.7781518 32.184537,39.1034483 32.5862069,39.1034483 C32.9878775,39.1034483 33.3103448,38.7781518 33.3103448,38.3793103 L33.3103448,36.9310345 C33.3103448,36.5321931 32.9878775,36.2068966 32.5862069,36.2068966 Z M36.2068966,36.2068966 C35.8052267,36.2068966 35.4827586,36.5321931 35.4827586,36.9310345 L35.4827586,38.3793103 C35.4827586,38.7781518 35.8052267,39.1034483 36.2068966,39.1034483 C36.6085672,39.1034483 36.9310345,38.7781518 36.9310345,38.3793103 L36.9310345,36.9310345 C36.9310345,36.5321931 36.6085672,36.2068966 36.2068966,36.2068966 Z M39.8275862,36.2068966 C39.4259163,36.2068966 39.1034483,36.5321931 39.1034483,36.9310345 L39.1034483,38.3793103 C39.1034483,38.7781518 39.4259163,39.1034483 39.8275862,39.1034483 C40.2292568,39.1034483 40.5517241,38.7781518 40.5517241,38.3793103 L40.5517241,36.9310345 C40.5517241,36.5321931 40.2292568,36.2068966 39.8275862,36.2068966 Z" id="Shape"></path>
</g>
</g>
</g>
</svg>