<svg xmlns="http://www.w3.org/2000/svg" xmlns:xlink="http://www.w3.org/1999/xlink" version="1.0" id="imgsvg9" x="0px" y="0px" width="78px" height="78px" viewBox="0 0 78 78" enable-background="new 0 0 78 78" xml:space="preserve" class="svg replaced-svg">
       								<path fill-rule="evenodd" clip-rule="evenodd" fill="#657177" d="M68,67h-4.062C63.98,66.671,64,66.336,64,66  c0-2.822-1.624-5.226-4-6.338V26c0-0.6-0.399-1-1-1H44V10c0-0.6-0.4-1-1-1H16c-0.6,0-1,0.4-1,1v57h-5c-0.6,0-1,0.4-1,1s0.4,1,1,1h6  h3h24h19.7H68c0.6,0,1-0.4,1-1S68.6,67,68,67z M19,62v2c0,0.117,0.016,0.226,0.045,0.326c-0.496,0.802-0.834,1.709-0.973,2.674H17  V11h25v14h-5c-0.6,0-1,0.4-1,1v31.1c-0.511-0.511-1.101-0.943-1.741-1.281c-0.057-0.03-0.114-0.06-0.172-0.088  c-0.022-0.012-0.045-0.023-0.067-0.034c-0.714-0.346-1.49-0.573-2.302-0.658c-0.012-0.001-0.022-0.002-0.034-0.003  c-0.095-0.01-0.189-0.017-0.284-0.022c-0.025-0.001-0.051-0.003-0.076-0.004C31.216,55.004,31.108,55,31,55  c-1.488,0-2.867,0.489-4,1.313V56c0-0.6-0.4-1-1-1s-1,0.4-1,1v2c0,0.15,0.025,0.288,0.072,0.409c-0.491,0.81-0.83,1.722-0.973,2.691  c-1.15,0.131-2.203,0.546-3.1,1.165V62c0-0.6-0.399-1-1-1C19.4,61,19,61.4,19,62z M41.345,67H20.1  c0.469-2.153,2.251-3.78,4.445-3.979c0.02-0.002,0.04-0.003,0.06-0.004c0.053-0.005,0.105-0.009,0.159-0.011  C24.842,63.002,24.921,63,25,63c0.6,0,1-0.4,1-1c0-2.8,2.2-5,5-5c2.5,0,4.6,1.8,4.9,4.3c0.067,0.271,0.228,0.493,0.447,0.642  c0.014,0.01,0.028,0.019,0.043,0.027c0.015,0.01,0.03,0.02,0.047,0.028c0.036,0.021,0.075,0.039,0.115,0.055  c0.001,0.001,0.003,0.001,0.004,0.002c0.046,0.019,0.094,0.034,0.144,0.046c0.06,0.021,0.127,0.027,0.198,0.025  c0.329,0.005,0.635-0.175,0.802-0.425l0.1-0.101c0.801-1,1.9-1.6,3.2-1.6c0.676,0,1.351,0.189,1.956,0.543  c-1.192,1.121-1.869,2.584-1.948,4.148C41.003,64.793,41,64.896,41,65C41,65.695,41.116,66.362,41.345,67z M42.534,58.199  c-0.009-0.002-0.019-0.004-0.027-0.007c-0.074-0.019-0.148-0.037-0.224-0.054c-0.061-0.013-0.122-0.024-0.184-0.036  c-0.026-0.005-0.053-0.01-0.08-0.015c-0.064-0.011-0.129-0.021-0.193-0.03c-0.029-0.004-0.059-0.008-0.088-0.011  c-0.06-0.008-0.119-0.015-0.18-0.021c-0.044-0.004-0.088-0.007-0.132-0.01c-0.047-0.003-0.094-0.007-0.142-0.01  C41.19,58.003,41.095,58,41,58c-0.073,0-0.146,0.001-0.219,0.004c-0.048,0.002-0.096,0.005-0.143,0.007  c-0.02,0.002-0.039,0.003-0.058,0.004c-0.911,0.061-1.806,0.317-2.581,0.772V27h5h15v32.07C57.674,59.025,57.34,59,57,59  c-0.755,0-1.495,0.129-2.195,0.369C54.631,59.137,54.35,59,54,59c-0.6,0-1,0.399-1,1v0.307c-0.379,0.272-0.731,0.584-1.051,0.931  c-0.051,0.054-0.101,0.107-0.149,0.162c-0.828-1.035-1.896-1.785-3.103-2.149C48.523,59.091,48.285,59,48,59  c-0.111,0-0.216,0.014-0.313,0.04C47.462,59.014,47.232,59,47,59c-0.627,0-1.332,0.081-1.904,0.313  c-0.07,0.023-0.141,0.048-0.211,0.074C44.194,58.826,43.386,58.422,42.534,58.199z M61.9,67H43.705  c-0.382-0.646-0.605-1.41-0.605-2.1c0-1.106,0.437-2.103,1.186-2.831c0.144-0.133,0.296-0.255,0.457-0.366  c0.156,0.002,0.313-0.031,0.458-0.104c2.2-1.199,4.8-0.1,5.6,2.101c0.101,0.3,0.4,0.6,0.9,0.6c0.095,0,0.2-0.03,0.306-0.084  c0.25-0.041,0.449-0.226,0.594-0.516c0.388-0.823,0.988-1.481,1.719-1.942c0.157-0.044,0.293-0.121,0.4-0.227  C55.405,61.186,56.184,61,57,61c2.8,0,5,2.2,5,5C62,66.3,62,66.7,61.9,67z M42,35c-0.6,0-1,0.4-1,1v2c0,0.6,0.4,1,1,1s1-0.4,1-1v-2  C43,35.4,42.6,35,42,35z M42,53c-0.6,0-1,0.4-1,1v2c0,0.6,0.4,1,1,1s1-0.4,1-1v-2C43,53.4,42.6,53,42,53z M42,41c-0.6,0-1,0.4-1,1v2  c0,0.6,0.4,1,1,1s1-0.4,1-1v-2C43,41.4,42.6,41,42,41z M42,47c-0.6,0-1,0.4-1,1v2c0,0.6,0.4,1,1,1s1-0.4,1-1v-2  C43,47.4,42.6,47,42,47z M42,29c-0.6,0-1,0.4-1,1v2c0,0.6,0.4,1,1,1s1-0.4,1-1v-2C43,29.4,42.6,29,42,29z M48,39c0.6,0,1-0.4,1-1v-2  c0-0.6-0.4-1-1-1s-1,0.4-1,1v2C47,38.6,47.4,39,48,39z M48,33c0.6,0,1-0.4,1-1v-2c0-0.6-0.4-1-1-1s-1,0.4-1,1v2  C47,32.6,47.4,33,48,33z M48,45c0.6,0,1-0.4,1-1v-2c0-0.6-0.4-1-1-1s-1,0.4-1,1v2C47,44.6,47.4,45,48,45z M48,51c0.6,0,1-0.4,1-1v-2  c0-0.6-0.4-1-1-1s-1,0.4-1,1v2C47,50.6,47.4,51,48,51z M48,57c0.6,0,1-0.4,1-1v-2c0-0.6-0.4-1-1-1s-1,0.4-1,1v2  C47,56.6,47.4,57,48,57z M54,45c0.6,0,1-0.4,1-1v-2c0-0.6-0.4-1-1-1s-1,0.4-1,1v2C53,44.6,53.4,45,54,45z M54,39c0.6,0,1-0.4,1-1v-2  c0-0.6-0.4-1-1-1s-1,0.4-1,1v2C53,38.6,53.4,39,54,39z M54,57c0.6,0,1-0.4,1-1v-2c0-0.6-0.4-1-1-1s-1,0.4-1,1v2  C53,56.6,53.4,57,54,57z M54,51c0.6,0,1-0.4,1-1v-2c0-0.6-0.4-1-1-1s-1,0.4-1,1v2C53,50.6,53.4,51,54,51z M54,33c0.6,0,1-0.4,1-1v-2  c0-0.6-0.4-1-1-1s-1,0.4-1,1v2C53,32.6,53.4,33,54,33z M20,47c0.6,0,1-0.4,1-1v-2c0-0.6-0.4-1-1-1s-1,0.4-1,1v2  C19,46.6,19.4,47,20,47z M20,53c0.6,0,1-0.4,1-1v-2c0-0.6-0.4-1-1-1s-1,0.4-1,1v2C19,52.6,19.4,53,20,53z M21,56c0-0.6-0.4-1-1-1  s-1,0.4-1,1v2c0,0.6,0.4,1,1,1s1-0.4,1-1V56z M20,17c0.6,0,1-0.4,1-1v-2c0-0.6-0.4-1-1-1s-1,0.4-1,1v2C19,16.6,19.4,17,20,17z   M20,23c0.6,0,1-0.4,1-1v-2c0-0.6-0.4-1-1-1s-1,0.4-1,1v2C19,22.6,19.4,23,20,23z M20,29c0.6,0,1-0.4,1-1v-2c0-0.6-0.4-1-1-1  s-1,0.4-1,1v2C19,28.6,19.4,29,20,29z M20,35c0.6,0,1-0.4,1-1v-2c0-0.6-0.4-1-1-1s-1,0.4-1,1v2C19,34.6,19.4,35,20,35z M20,41  c0.6,0,1-0.4,1-1v-2c0-0.6-0.4-1-1-1s-1,0.4-1,1v2C19,40.6,19.4,41,20,41z M26,23c0.6,0,1-0.4,1-1v-2c0-0.6-0.4-1-1-1s-1,0.4-1,1v2  C25,22.6,25.4,23,26,23z M26,17c0.6,0,1-0.4,1-1v-2c0-0.6-0.4-1-1-1s-1,0.4-1,1v2C25,16.6,25.4,17,26,17z M26,35c0.6,0,1-0.4,1-1v-2  c0-0.6-0.4-1-1-1s-1,0.4-1,1v2C25,34.6,25.4,35,26,35z M26,29c0.6,0,1-0.4,1-1v-2c0-0.6-0.4-1-1-1s-1,0.4-1,1v2  C25,28.6,25.4,29,26,29z M26,41c0.6,0,1-0.4,1-1v-2c0-0.6-0.4-1-1-1s-1,0.4-1,1v2C25,40.6,25.4,41,26,41z M26,47c0.6,0,1-0.4,1-1v-2  c0-0.6-0.4-1-1-1s-1,0.4-1,1v2C25,46.6,25.4,47,26,47z M26,53c0.6,0,1-0.4,1-1v-2c0-0.6-0.4-1-1-1s-1,0.4-1,1v2  C25,52.6,25.4,53,26,53z M32,29c0.6,0,1-0.4,1-1v-2c0-0.6-0.4-1-1-1s-1,0.4-1,1v2C31,28.6,31.4,29,32,29z M32,23c0.6,0,1-0.4,1-1v-2  c0-0.6-0.4-1-1-1s-1,0.4-1,1v2C31,22.6,31.4,23,32,23z M32,17c0.6,0,1-0.4,1-1v-2c0-0.6-0.4-1-1-1s-1,0.4-1,1v2  C31,16.6,31.4,17,32,17z M32,53c0.6,0,1-0.4,1-1v-2c0-0.6-0.4-1-1-1s-1,0.4-1,1v2C31,52.6,31.4,53,32,53z M32,47c0.6,0,1-0.4,1-1v-2  c0-0.6-0.4-1-1-1s-1,0.4-1,1v2C31,46.6,31.4,47,32,47z M32,41c0.6,0,1-0.4,1-1v-2c0-0.6-0.4-1-1-1s-1,0.4-1,1v2  C31,40.6,31.4,41,32,41z M32,35c0.6,0,1-0.4,1-1v-2c0-0.6-0.4-1-1-1s-1,0.4-1,1v2C31,34.6,31.4,35,32,35z M38,23c0.6,0,1-0.4,1-1v-2  c0-0.6-0.4-1-1-1s-1,0.4-1,1v2C37,22.6,37.4,23,38,23z M38,17c0.6,0,1-0.4,1-1v-2c0-0.6-0.4-1-1-1s-1,0.4-1,1v2  C37,16.6,37.4,17,38,17z"></path>
       							</svg>